<svg xmlns="http://www.w3.org/2000/svg" width="97.01" height="50.85" viewBox="0 0 97.01 50.85"><path d="M1737.282,259.868c0,.588,0,1.071.031,1.327.018.177.055.312.238.336a2.673,2.673,0,0,0,.275.025c.037,0,.049.019.049.036s-.031.049-.1.049c-.335,0-.721-.018-.751-.018s-.416.018-.6.018c-.067,0-.1-.012-.1-.049,0-.018.012-.036.048-.036a.922.922,0,0,0,.183-.025c.123-.024.153-.159.177-.336.031-.256.031-.739.031-1.327v-.643a.035.035,0,0,0-.036-.034h-2.593c-.018,0-.036,0-.036.034v.643c0,.588,0,1.071.031,1.327.018.177.055.312.238.336a2.632,2.632,0,0,0,.275.025c.036,0,.048.019.048.036s-.03.049-.1.049c-.336,0-.722-.018-.752-.018s-.415.018-.6.018c-.067,0-.1-.012-.1-.049,0-.018.012-.036.049-.036a.941.941,0,0,0,.183-.025c.122-.024.152-.159.177-.336.03-.256.03-.739.03-1.327v-1.075c0-.954,0-1.126-.012-1.32s-.061-.307-.263-.349a1.035,1.035,0,0,0-.208-.018c-.024,0-.048-.012-.048-.036s.031-.051.1-.051c.275,0,.66.019.69.019s.416-.019.6-.019c.067,0,.1.012.1.051s-.025.036-.049.036a.774.774,0,0,0-.153.018c-.165.031-.215.135-.226.349-.012.194-.012.366-.012,1.32v.129a.033.033,0,0,0,.036.037h2.593a.033.033,0,0,0,.036-.037v-.129c0-.954,0-1.126-.012-1.32s-.061-.307-.262-.349a1.045,1.045,0,0,0-.208-.018c-.025,0-.049-.012-.049-.036s.031-.051.1-.051c.275,0,.66.019.69.019s.416-.019.6-.019c.067,0,.1.012.1.051s-.025.036-.049.036a.773.773,0,0,0-.153.018c-.165.031-.214.135-.226.349-.012.194-.012.366-.012,1.32Z" transform="translate(-1695.554 -210.876)" fill="#1a1818"/><path d="M1745.034,261.435c.551,0,1.688-.318,1.688-2.1,0-1.466-.892-2.255-1.858-2.255a1.76,1.76,0,0,0-1.785,2.01,2.084,2.084,0,0,0,1.955,2.342m-.128-4.561a2.228,2.228,0,0,1,2.4,2.291,2.4,2.4,0,0,1-2.439,2.5,2.291,2.291,0,0,1-2.371-2.4,2.366,2.366,0,0,1,2.408-2.391" transform="translate(-1699.443 -210.816)" fill="#1a1818"/><path d="M1753.562,259.808c0,.588,0,1.071.029,1.327.019.177.056.312.239.336a2.64,2.64,0,0,0,.275.025c.038,0,.049.019.049.036s-.031.049-.1.049c-.338,0-.723-.018-.753-.018s-.416.018-.6.018c-.067,0-.1-.012-.1-.049,0-.018.012-.036.049-.036a.929.929,0,0,0,.183-.025c.123-.024.154-.159.178-.336.031-.256.031-.739.031-1.327v-2.585l-.9.012c-.379.005-.526.048-.623.194a1.154,1.154,0,0,0-.1.19c-.019.049-.037.061-.062.061s-.031-.017-.031-.053c0-.061.123-.587.135-.636s.036-.116.061-.116a1.121,1.121,0,0,0,.269.073c.178.019.411.031.483.031h2.292a3.017,3.017,0,0,0,.605-.06c.031,0,.031.036.031.072,0,.185-.019.6-.019.673s-.018.079-.043.079-.042-.018-.048-.1l-.006-.068c-.025-.182-.166-.323-.752-.335l-.77-.012Z" transform="translate(-1703.079 -210.816)" fill="#1a1818"/><path d="M1759.725,258.758c0-.954,0-1.125-.014-1.32-.011-.209-.061-.307-.262-.349a1.039,1.039,0,0,0-.208-.018c-.025,0-.049-.012-.049-.036s.03-.051.1-.051c.276,0,.661.019.692.019s1.258,0,1.4-.007a1.612,1.612,0,0,0,.263-.029c.031-.007.055-.032.086-.032s.025.025.025.055-.029.116-.049.287c-.006.061-.019.33-.031.4-.006.032-.018.068-.043.068s-.049-.029-.049-.078a.644.644,0,0,0-.036-.22c-.043-.1-.1-.172-.434-.209-.1-.012-.77-.018-.837-.018-.025,0-.038.018-.038.061v1.686c0,.045.007.062.038.062.079,0,.831,0,.971-.012s.233-.024.288-.085.067-.08.091-.08.031.013.031.049-.031.141-.049.342c-.012.122-.025.349-.025.39s0,.117-.042.117-.044-.025-.044-.053a.633.633,0,0,0-.024-.2c-.025-.085-.08-.189-.317-.214-.165-.017-.771-.029-.875-.029a.039.039,0,0,0-.044.042v.537c0,.209-.005.917,0,1.047.019.42.111.5.71.5a1.734,1.734,0,0,0,.587-.068c.158-.066.232-.187.274-.439.012-.068.025-.092.056-.092s.036.049.036.092-.049.464-.08.593c-.042.159-.092.159-.33.159-.923,0-1.333-.036-1.51-.036-.031,0-.416.017-.6.017-.067,0-.1-.012-.1-.048,0-.018.012-.037.049-.037a.941.941,0,0,0,.184-.025c.122-.024.153-.159.178-.336.031-.255.031-.739.031-1.327Z" transform="translate(-1706.321 -210.842)" fill="#1a1818"/><path d="M1766.579,259.88c0,.9.025,1.29.135,1.4s.257.141.734.141c.323,0,.592-.006.74-.184a.859.859,0,0,0,.158-.366c.005-.048.018-.08.055-.08s.037.024.037.092a3.876,3.876,0,0,1-.092.612c-.044.141-.061.165-.385.165-.88,0-1.284-.036-1.637-.036-.056,0-.417.017-.6.017-.068,0-.1-.012-.1-.049,0-.017.012-.036.048-.036a.917.917,0,0,0,.183-.025c.123-.024.153-.159.178-.336.031-.255.031-.739.031-1.327v-1.075c0-.954,0-1.125-.013-1.32-.012-.209-.061-.308-.262-.349a1.044,1.044,0,0,0-.208-.018c-.024,0-.048-.012-.048-.036s.031-.051.1-.051c.275,0,.66.019.692.019s.476-.019.659-.019c.068,0,.1.012.1.051s-.024.036-.048.036a1.255,1.255,0,0,0-.2.018c-.178.031-.226.135-.238.349-.013.194-.013.366-.013,1.32Z" transform="translate(-1708.934 -210.876)" fill="#1a1818"/><path d="M1766.209,228.757a7.406,7.406,0,0,1-1.513.153h-5.73c-.183,0-.765-.031-1.207-.076a2.908,2.908,0,0,1-.673-.184c-.061,0-.123.2-.153.29-.031.123-.336,1.436-.336,1.59,0,.092.031.137.076.137.061,0,.108-.029.153-.151a2.618,2.618,0,0,1,.26-.475c.245-.366.611-.475,1.558-.49l2.261-.031v6.463c0,1.468,0,2.674-.076,3.317-.061.442-.138.78-.442.84a2.415,2.415,0,0,1-.459.061c-.092,0-.123.046-.123.092,0,.092.077.122.244.122.459,0,1.421-.045,1.5-.045s1.039.045,1.879.045c.169,0,.245-.045.245-.122,0-.046-.031-.092-.123-.092a6.825,6.825,0,0,1-.688-.061c-.459-.061-.55-.4-.6-.84-.077-.643-.077-1.849-.077-3.317v-6.463l1.925.031c1.467.031,1.819.382,1.879.841l.016.168c.014.214.046.259.122.259s.107-.061.107-.2c0-.169.046-1.223.046-1.682,0-.091,0-.183-.077-.183m-11.158.108c-.626,0-1.13.045-1.3.045s-.9-.045-1.588-.045c-.183,0-.306.014-.306.106,0,.061.015.108.123.108a3.981,3.981,0,0,1,.749.077c.474.121.581.457.6,1.45l.168,7.764c-.489-.506-2.155-2.369-3.667-3.989-2.353-2.521-4.631-4.983-4.86-5.242-.152-.153-.413-.49-.535-.49s-.167.169-.167.764l-.015,8.756c0,1.392-.077,1.833-.46,1.94a2.183,2.183,0,0,1-.625.092c-.076,0-.123.032-.123.092,0,.106.093.122.245.122.688,0,1.33-.045,1.467-.045s.749.045,1.62.045c.184,0,.275-.03.275-.122,0-.061-.046-.092-.122-.092a3.358,3.358,0,0,1-.765-.092c-.412-.122-.565-.519-.6-1.772l-.2-7.32c.49.55,2.216,2.476,3.989,4.385,1.62,1.742,3.822,3.989,3.989,4.142.809.81.994.977,1.115.977s.138-.075.138-1.084l.03-8.955c0-.917.061-1.253.566-1.361a1.383,1.383,0,0,1,.367-.045c.106,0,.168-.047.168-.108,0-.092-.108-.106-.276-.106m-19.607,11.185c-2.751,0-4.89-2.291-4.89-5.852,0-3.346,1.911-5.029,4.462-5.029,2.414,0,4.646,1.972,4.646,5.64,0,4.447-2.843,5.242-4.218,5.242m-.32-11.4a5.916,5.916,0,0,0-6.021,5.976,5.729,5.729,0,0,0,5.929,6,6,6,0,0,0,6.1-6.249c0-3.562-2.568-5.731-6.006-5.731m-6.849,11.552a3.339,3.339,0,0,1-.994-.136c-.657-.214-.764-1.071-.824-1.621l-1.024-9.382c-.031-.29-.077-.413-.183-.413s-.169.107-.23.245l-4.493,9.6-4.676-9.612c-.076-.166-.137-.229-.229-.229s-.138.107-.169.276l-1.1,9.964c-.061.58-.107,1.176-.611,1.267a1.984,1.984,0,0,1-.458.045c-.077,0-.153.032-.153.077,0,.107.107.137.26.137.413,0,1.146-.045,1.283-.045.122,0,.856.045,1.421.045.183,0,.275-.03.275-.137,0-.045-.061-.077-.122-.077a2.87,2.87,0,0,1-.58-.075.489.489,0,0,1-.4-.473c0-.261,0-.537.015-.78l.612-7.091h.061c.169.413,1.879,4.081,2.018,4.355.076.153,1.39,2.8,1.787,3.546.291.55.366.7.474.7.137,0,.182-.138.5-.81l3.743-7.945h.046l.734,7.883c.03.276.015.535-.062.551s-.106.045-.106.106c0,.076.076.123.427.153.565.047,2.216.092,2.552.092.183,0,.321-.045.321-.137,0-.061-.046-.077-.122-.077m-21.778-5.439a1.966,1.966,0,0,1-1.145.29,4.218,4.218,0,0,1-1.6-.245.2.2,0,0,1-.108-.182v-5a.182.182,0,0,1,.123-.182,4.509,4.509,0,0,1,1.023-.093c1.635,0,2.644,1.147,2.644,3.057a2.79,2.79,0,0,1-.933,2.354m6.006,5.439a3.713,3.713,0,0,1-.6-.045,3.153,3.153,0,0,1-1.864-1.1c-.887-.946-1.926-2.307-3.179-3.911a4.712,4.712,0,0,0,1.849-3.529,2.675,2.675,0,0,0-1.054-2.078,4.7,4.7,0,0,0-2.8-.673c-.474,0-1.635.045-1.8.045-.075,0-1.038-.045-1.726-.045-.168,0-.245.03-.245.122,0,.061.061.092.122.092a2.914,2.914,0,0,1,.52.045c.5.108.627.351.657.871.03.489.03.917.03,3.3v2.689c0,1.468,0,2.674-.076,3.317-.061.442-.137.78-.443.84a2.386,2.386,0,0,1-.458.061c-.092,0-.122.046-.122.092,0,.092.077.122.245.122.458,0,1.421-.045,1.436-.045.076,0,1.039.045,1.879.045.168,0,.245-.045.245-.122,0-.046-.031-.092-.123-.092a6.822,6.822,0,0,1-.688-.061c-.458-.061-.55-.4-.6-.84-.076-.643-.076-1.849-.076-3.317v-.366c0-.076.031-.122.108-.122l1.879.031a.245.245,0,0,1,.2.091c.305.4,1.024,1.421,1.665,2.262a7.961,7.961,0,0,0,2.063,2.247,3.12,3.12,0,0,0,1.635.289h1.084c.276,0,.367-.03.367-.122,0-.046-.061-.092-.137-.092m-18.438-.152c-2.751,0-4.891-2.291-4.891-5.852,0-3.346,1.911-5.029,4.463-5.029,2.415,0,4.645,1.972,4.645,5.64,0,4.447-2.842,5.242-4.217,5.242m-.321-11.4a5.917,5.917,0,0,0-6.021,5.976,5.728,5.728,0,0,0,5.929,6,6,6,0,0,0,6.1-6.249c0-3.562-2.567-5.731-6.005-5.731m-7.277.107a3.86,3.86,0,0,0-.428.077,8.073,8.073,0,0,1-1.085.076h-5.731c-.183,0-.763-.031-1.207-.076a2.94,2.94,0,0,1-.673-.184c-.062,0-.122.2-.153.29-.031.123-.336,1.436-.336,1.59,0,.092.03.137.076.137s.107-.029.152-.151a2.693,2.693,0,0,1,.26-.475c.245-.366.612-.475,1.558-.49l2.263-.031v6.463c0,1.468,0,2.674-.077,3.317-.061.442-.138.78-.443.84a2.4,2.4,0,0,1-.457.061c-.092,0-.123.046-.123.092,0,.092.077.122.245.122.458,0,1.421-.045,1.5-.045s1.038.045,1.878.045c.168,0,.245-.045.245-.122,0-.046-.031-.092-.122-.092a6.812,6.812,0,0,1-.688-.061c-.459-.061-.55-.4-.6-.84-.076-.643-.076-1.849-.076-3.317v-6.463l1.926.031c1.467.031,1.818.382,1.879.841l.015.168c.015.214.046.259.123.259.061,0,.106-.061.106-.2,0-.169.046-1.223.046-1.682,0-.091,0-.183-.077-.183m-13.538,5.1-.428-.338c-1.437-1.176-1.864-1.7-1.864-2.568a1.736,1.736,0,0,1,1.878-1.771c1.406,0,1.819.642,1.911.81a2.714,2.714,0,0,1,.2.764c.015.123.03.2.122.2.077,0,.106-.105.106-.35,0-1.039.061-1.542.061-1.619s-.03-.108-.153-.108a2.4,2.4,0,0,1-.534-.077,6.053,6.053,0,0,0-1.421-.152c-1.94,0-3.163,1.117-3.163,2.751,0,1.039.368,1.986,1.987,3.315l.688.566c1.314,1.084,1.757,1.7,1.757,2.751a2.04,2.04,0,0,1-2.185,2.033,2.08,2.08,0,0,1-2.262-1.56,2.677,2.677,0,0,1-.046-.565c0-.122-.015-.169-.107-.169-.076,0-.106.077-.122.245-.015.245-.077.857-.077,1.619,0,.413.015.474.229.582a4.656,4.656,0,0,0,2.047.412,4.011,4.011,0,0,0,2.307-.642,3.167,3.167,0,0,0,1.3-2.537c0-1.223-.428-2.17-2.23-3.59" transform="translate(-1669.277 -199.188)" fill="#1a1818"/><path d="M1741.125,190.961c5.371-.041,8.352,6.457,4.171,6.812a2.228,2.228,0,0,1-1.227-.233l-.206-.139c-.923-.739-.621-2.315-.6-2.409a.758.758,0,0,0,.664-.033c1.866,1.235,2.631-1.369,1.014-2.269-.212-.168-.477-.1-.4.085.15.751-1.138,1.06-.7,1.955a.449.449,0,0,1-.6-.1,2.5,2.5,0,0,0-1.457-1.836c.909.063,1.344.953,1.386.872.783-1.5-2.029-2.243-3.807-1.429-.183.055-.237.229-.016.229,1.952.065,1.886,2.107,3.416,1.558a1.281,1.281,0,0,1,.193.647.461.461,0,0,1-.619.231c-.91-1.243-2.052-.092-2.683-.632-.263-.282-.368-.066-.3.085a2.152,2.152,0,0,0,.847,1.025,31.036,31.036,0,0,0-5.824-2.045c2.7-1.773,4.887-2.42,6.751-2.377m7.4,9.357c-.8-.414-1.659-.924-2.624-1.552a2.91,2.91,0,0,0,1.667-.829,2.618,2.618,0,0,0,.957,2.381m-7.739-4.652c.9.3,1.888.1,2.153-.556a4.194,4.194,0,0,0,.176,1.825q-1.139-.688-2.328-1.268m-21.214,2.7c-.113-1.732-2.159-3.718-2.166-5.167a4.019,4.019,0,0,1,2.155-.211v0l.017,0h0a4.031,4.031,0,0,1,2.156.212c-.007,1.449-2.052,3.433-2.166,5.165m-20.629-2.985a2.158,2.158,0,0,0,.848-1.026c.072-.151-.032-.368-.3-.085-.631.54-1.772-.61-2.684.632a.462.462,0,0,1-.619-.23,1.285,1.285,0,0,1,.194-.647c1.529.549,1.464-1.494,3.416-1.558.222,0,.168-.174-.016-.229-1.779-.815-4.59-.074-3.808,1.429.042.08.479-.81,1.386-.872a2.5,2.5,0,0,0-1.456,1.836.449.449,0,0,1-.6.1c.435-.9-.853-1.2-.7-1.956.075-.182-.189-.252-.4-.085-1.618.9-.851,3.5,1.014,2.27a.754.754,0,0,0,.664.031c.021.094.324,1.672-.6,2.411l-.205.138a2.21,2.21,0,0,1-1.227.233c-4.18-.353-1.2-6.85,4.171-6.81,1.863-.043,4.048.6,6.749,2.377a30.937,30.937,0,0,0-5.823,2.045m-2.916,1.552a4.153,4.153,0,0,0,.177-1.825c.265.657,1.256.854,2.153.554-.791.389-1.571.811-2.33,1.27m-5.41,3.383a2.612,2.612,0,0,0,.957-2.38,2.907,2.907,0,0,0,1.668.828c-.966.628-1.827,1.138-2.625,1.552m74.594,1.723a2.674,2.674,0,0,0-3.279-.26,2.583,2.583,0,0,0,.952-1.886,1.735,1.735,0,0,0-2.426-1.347,1.331,1.331,0,0,1,.827,2.35,2.261,2.261,0,0,0-1.753-2.262,1.489,1.489,0,0,0-1.748,1.1,1.06,1.06,0,0,0,1.227,1.469c-.7-1.262.929-1.676,1.368-.569s-1.018,1.339-2.159,1.675c-10.467,2.428-15.575-5.4-22.75-7.554,6.667.674,12.311,8.388,21,7.4a27.712,27.712,0,0,1-3.285-.27c2.322-.172,2.893-2.548,1.386-3.75l0,0a.063.063,0,0,1-.01-.008,1.406,1.406,0,0,0-.271-.182c-.019-.011-.033-.025-.052-.035l-.008.005a1.558,1.558,0,0,0-.665-.155,1.292,1.292,0,1,0,0,2.57,1.515,1.515,0,0,0,.89-.288c.011.833-.786,2.005-3.255,1.391a15.078,15.078,0,0,1-1.885-.731c1.025.263,2.07-.353,1.778-2.1-.4,2.516-3.265,1.673-3.122-.549-.169-.76,1.181-4.052-2.323-6.583a5.179,5.179,0,0,1,2.914,5.4,2.532,2.532,0,0,0,.282-2.054,2.7,2.7,0,0,0,1.532.83c-.647,2.474,3.026.408,4.824,1.8.313.27.579.209.38-.177-1.323-2.572-5.2-4.251-5.063-2.169a4.1,4.1,0,0,0,1.307.506c-1.828-.209-2.715-.76-3.122-1.662-1.633-3.815-8.115-6.3-14.239-4.627a5.037,5.037,0,0,1-1.406,2.49,10.122,10.122,0,0,1,10.777-1.351c-3.31-.858-6.619-.45-10.58,2.64-.731-.142-1.441-.245-2.124-.31a7.14,7.14,0,0,0,2.984-4.487c.106-.9,1.075-2.474,2.545-1.261-.567-1.814-1.887-1.471-2.66-.723-.45-1.7-2.055-3.924-5.8-5.493-.6-.248-.61-.1-.035.173,9.463,4.812,2.613,12.2-2.137,11.711,2.206-.525,5.888-2.365,4.943-5.994-.073-.278-.271-.3-.27-.028,0,1.235-.684,2.35-.684,1.535a4.193,4.193,0,0,0-.616-2.814c-.137-.218-.268-.193-.2.056.358,1.309-.1,2.569-.432,2.4-.47-.244.185-.993-.809-2.323-.135-.181-.31-.171-.249.028.461,1.463-.046,2.662-.379,2a2.59,2.59,0,0,0-.535-.787c-.3-.269-.464-.058-.309.252,1.435,2.786-1.772,3.6-1.982,3.428.591-1.138.068-2.259-1.593-2.513,2.152,1.308.576,2.822.032,3.061-.025-.006.8-.48.253-1.156-.97.422-1.412,1.478-1.862,1.227a10.118,10.118,0,0,0-3.5,0c-.449.251-.892-.8-1.865-1.227-.548.674.28,1.149.256,1.156-.545-.239-2.122-1.754.031-3.062-1.661.253-2.183,1.374-1.592,2.513-.212.168-3.418-.642-1.982-3.428.155-.31-.013-.522-.309-.253a2.582,2.582,0,0,0-.535.789c-.333.666-.841-.533-.38-2,.063-.2-.113-.209-.248-.029-.993,1.331-.34,2.08-.81,2.322-.331.171-.79-1.089-.431-2.4.069-.25-.062-.273-.2-.055a4.186,4.186,0,0,0-.616,2.812c0,.815-.686-.3-.684-1.535,0-.269-.2-.248-.269.028-.946,3.629,2.736,5.47,4.942,6-4.749.495-11.6-6.9-2.137-11.712.574-.276.56-.422-.035-.173-3.75,1.569-5.354,3.8-5.8,5.492-.774-.749-2.094-1.092-2.661.723,1.47-1.212,2.439.362,2.546,1.262a7.137,7.137,0,0,0,2.983,4.485c-.683.065-1.393.169-2.124.31-3.96-3.089-7.27-3.5-10.579-2.64a10.122,10.122,0,0,1,10.777,1.351,5.039,5.039,0,0,1-1.407-2.49c-6.124-1.675-12.6.813-14.239,4.628-.407.9-1.294,1.451-3.124,1.66a4.078,4.078,0,0,0,1.309-.505c.141-2.083-3.74-.4-5.062,2.169-.2.386.068.448.38.176,1.8-1.388,5.47.679,4.823-1.8a2.711,2.711,0,0,0,1.532-.831,2.535,2.535,0,0,0,.282,2.055,5.179,5.179,0,0,1,2.912-5.4c-3.5,2.533-2.153,5.823-2.322,6.584.141,2.222-2.724,3.065-3.124.547-.291,1.75.752,2.367,1.779,2.1a14.822,14.822,0,0,1-1.885.731c-2.47.614-3.266-.558-3.255-1.391a1.518,1.518,0,0,0,.891.288,1.293,1.293,0,1,0,0-2.571,1.539,1.539,0,0,0-.666.156l-.008-.006c-.019.011-.033.025-.052.036a1.343,1.343,0,0,0-.272.183l-.01.008,0,0c-1.506,1.2-.935,3.58,1.387,3.752a27.869,27.869,0,0,1-3.285.27c8.685.988,14.327-6.725,21-7.4-7.176,2.153-12.283,9.983-22.75,7.556-1.141-.338-2.6-.57-2.161-1.677s2.069-.692,1.368.571a1.06,1.06,0,0,0,1.228-1.469,1.487,1.487,0,0,0-1.748-1.1,2.259,2.259,0,0,0-1.752,2.26,1.331,1.331,0,0,1,.827-2.35,1.735,1.735,0,0,0-2.427,1.346,2.584,2.584,0,0,0,.951,1.888,2.676,2.676,0,0,0-3.28.259c-.753.834-.182,2.267,2.11,1.343-.906-.39-.662-.878-.169-1.054a1.758,1.758,0,0,1,.787-.042,22.838,22.838,0,0,1,2.853.593,18.586,18.586,0,0,0,12.051-.389c1.462,1.979,3.279,1.224,5.5-.423a2.111,2.111,0,0,0,1.5.014,1.528,1.528,0,0,1-1.018-.38c2.836-2.2,6.3-5.562,10.475-6.518-7.293.857-12.548,9.35-15.846,7.063q.316-.135.632-.276a2.226,2.226,0,0,0,1.579.05c-.57,0-.78-.218-.859-.392a64.918,64.918,0,0,0,6.433-3.828c5.23-3.381,13.294-5.4,15.449-.423a5.25,5.25,0,0,0-4.925-2.42c2.975.5,4.3,2.187,4.364,3.77a3.083,3.083,0,0,1-1.434,2.673,3.327,3.327,0,0,1-4.951-1.2,2.349,2.349,0,0,1,.647-2.816c1.112-.913,3.11-.97,3.409.593-1.605-1.659-1.864.492-3.032-.028a2.326,2.326,0,0,0,3.01.485,3.035,3.035,0,0,1-1.448,1.879,4.277,4.277,0,0,0,.781-1.161c-1.752-.3-1.4,1.46-2.427,1.666,1.14,1.014,3.488.423,2.926-1.377a5.375,5.375,0,0,0,.534-.93c-.042.851.713,1.426.608,2.079.674-.209,1.547-2.26-.5-2.416.254-1.492-1.772-2.712-3.849-1.581-2.172,1.181-2.527,3.824-3.1,5.07-.31.6-.64,1.211-1.706.78a1.345,1.345,0,0,0,2.04.27c.954-.947.981-2.619,1.431-3.421a4.616,4.616,0,0,0,4.1,4.379c3.7.208,5.537-3.819,4.435-6.539a6.755,6.755,0,0,0-2.1-2.79h.005a2.049,2.049,0,0,1,2.433-1.719c.522.073-.289.882-.365,1.466a3.767,3.767,0,0,1,.423.887,9.746,9.746,0,0,0,.625,3.034c.712,1.567.078,3.836.893,4.4.515.353,1.014.085,1.332.062.315.017.822.3,1.341-.061.816-.563.182-2.832.895-4.4a9.753,9.753,0,0,0,.623-3.035,3.79,3.79,0,0,1,.423-.887c-.077-.584-.887-1.394-.365-1.467a2.05,2.05,0,0,1,2.433,1.721h0a6.76,6.76,0,0,0-2.1,2.791c-1.1,2.721.731,6.748,4.434,6.539a4.613,4.613,0,0,0,4.1-4.379c.45.8.478,2.475,1.432,3.421a1.343,1.343,0,0,0,2.039-.271c-1.064.433-1.394-.178-1.7-.779-.572-1.247-.927-3.89-3.1-5.072-2.076-1.13-4.1.089-3.849,1.582-2.042.156-1.17,2.207-.5,2.417-.106-.654.65-1.229.607-2.08a5.5,5.5,0,0,0,.535.93c-.563,1.8,1.786,2.391,2.926,1.378-1.03-.206-.676-1.969-2.427-1.666a4.259,4.259,0,0,0,.782,1.161,3.033,3.033,0,0,1-1.448-1.879,2.324,2.324,0,0,0,3.009-.485c-1.168.52-1.428-1.632-3.032.028.3-1.564,2.3-1.507,3.409-.593a2.349,2.349,0,0,1,.647,2.815,3.327,3.327,0,0,1-4.951,1.205,3.079,3.079,0,0,1-1.434-2.674c.065-1.582,1.39-3.266,4.364-3.769a5.244,5.244,0,0,0-4.924,2.42c2.155-4.975,10.217-2.959,15.447.422a64.938,64.938,0,0,0,6.433,3.829c-.079.173-.289.39-.858.39a2.216,2.216,0,0,0,1.578-.051q.318.143.632.276c-3.3,2.29-8.552-6.206-15.847-7.062,4.177.957,7.64,4.321,10.476,6.518a1.529,1.529,0,0,1-1.017.38,2.116,2.116,0,0,0,1.5-.014c2.219,1.646,4.036,2.4,5.5.422a18.577,18.577,0,0,0,12.055.39,20.157,20.157,0,0,1,2.847-.593,1.752,1.752,0,0,1,.787.043c.493.175.737.664-.168,1.054,2.292.924,2.863-.509,2.109-1.342m-27.379-1.666c-3.23-3.912-7.3-5.362-9.751-4.644,4.276-.163,7.685,3.527,9.612,5.948a1.313,1.313,0,0,1-1.042.35,1.478,1.478,0,0,0,1.344.031c2.242,2.767,4.384,1.14,4.372.489-.158.185-1.5,1.5-4.535-2.174m-2.387,1.071a9.791,9.791,0,0,0-3.058-3.732,16.429,16.429,0,0,1,2.226,3.932,1.036,1.036,0,0,1-.769.2,1.111,1.111,0,0,0,.916.078,4.369,4.369,0,0,0,.8,1.1c.628.584,2.236.6,2.581-.435-1.14.73-1.979.059-2.7-1.14m13.333-2.352c.971.679,1.766.117,1.8-.468.028-.482-.366-1.1-1.434-.781,1.6.056.716,1.731-.368,1.25m-58.781-1.252c-1.067-.323-1.464.3-1.435.783.035.584.831,1.146,1.8.467-1.085.481-1.971-1.194-.368-1.251m21.053-15.448a11.917,11.917,0,0,1,3.7,1.765,7.475,7.475,0,0,0-4.129.4,9.81,9.81,0,0,1,4.154,1.2,2.521,2.521,0,0,0-1.635,2.267,3.543,3.543,0,0,1,3.479-.623,3.268,3.268,0,0,0-2.354-.667,2.183,2.183,0,0,1,2.267-.459,11.309,11.309,0,0,0-2.913-1.656,6.075,6.075,0,0,1,3.312.826,12.759,12.759,0,0,0-2.9-2.5,7.5,7.5,0,0,1,3.5,1.955c-.844-1.434-1.757-2.534-2.235-3.379,1.528.562,2.769,2.653,3.019,2.976-.164-.444-1.234-2.917-.976-4.019,1.211.978,1.657,3.327,1.813,3.84a2.111,2.111,0,1,1,.833,0c.156-.513.6-2.861,1.814-3.839.258,1.1-.813,3.575-.978,4.018.252-.323,1.492-2.414,3.021-2.975-.479.844-1.392,1.945-2.235,3.379a7.486,7.486,0,0,1,3.5-1.956,12.792,12.792,0,0,0-2.9,2.5,6.072,6.072,0,0,1,3.311-.825,11.329,11.329,0,0,0-2.913,1.656,2.185,2.185,0,0,1,2.268.46,3.264,3.264,0,0,0-2.354.666,3.535,3.535,0,0,1,3.479.623,2.517,2.517,0,0,0-1.636-2.267,9.829,9.829,0,0,1,4.157-1.2,7.478,7.478,0,0,0-4.129-.4,11.88,11.88,0,0,1,3.7-1.765,6.257,6.257,0,0,0-4.164.272,12.913,12.913,0,0,0,1.932-2.5,6.589,6.589,0,0,0-3.208,1.263,3.924,3.924,0,0,0-.015-2.538c-.992.105-2.021,1.788-2.021,1.788a1.32,1.32,0,1,0-2.089,0s-1.029-1.682-2.021-1.787a3.928,3.928,0,0,0-.015,2.538,6.579,6.579,0,0,0-3.209-1.263,12.932,12.932,0,0,0,1.933,2.5,6.258,6.258,0,0,0-4.165-.271m-5.751,19.45a1.034,1.034,0,0,1-.769-.2,16.37,16.37,0,0,1,2.226-3.931,9.765,9.765,0,0,0-3.057,3.732c-.717,1.2-1.558,1.869-2.7,1.14.347,1.038,1.954,1.018,2.582.436a4.422,4.422,0,0,0,.8-1.1,1.116,1.116,0,0,0,.916-.079m-2.806.182a1.309,1.309,0,0,1-1.041-.35c1.925-2.421,5.334-6.111,9.609-5.948-2.448-.718-6.521.732-9.75,4.643-3.035,3.675-4.377,2.359-4.535,2.175-.012.65,2.13,2.278,4.372-.489a1.479,1.479,0,0,0,1.345-.031m17.068-12.932a1.118,1.118,0,1,1,1.117-1.117,1.119,1.119,0,0,1-1.117,1.117m2.668-1.12c-.007-.256-.366-.373-1-.328.6-.2.885-.446.792-.684h0l0,0v0h0c-.1-.235-.488-.2-1.06.091.488-.425.664-.769.485-.954h0l0,0v0h0c-.188-.176-.523,0-.934.482.283-.572.314-.953.077-1.055h0l0,0h0c-.244-.093-.492.21-.69.837.051-.651-.064-1.024-.325-1.03h-.008c-.257.006-.373.369-.325,1-.2-.609-.442-.9-.683-.81h0l0,0h-.005c-.235.1-.2.483.078,1.055-.409-.482-.747-.657-.933-.482h0l0,0,0,0c-.18.186,0,.53.485.955-.572-.293-.956-.327-1.06-.092h0v0l0,0h0c-.092.239.2.484.793.684-.629-.045-.99.072-1,.328h0v.006h0c.005.261.377.376,1.027.325-.619.2-.917.453-.825.7h0l0,0v0h0c.1.236.489.2,1.06-.089-.489.423-.665.768-.485.955l0,0,0,0h0c.187.176.524,0,.934-.483-.282.573-.313.954-.078,1.056h.005l0,0h0c.241.092.485-.2.683-.81-.048.634.068,1,.325,1h.008c.256-.006.372-.366.328-1,.2.6.439.9.679.8h0l0,0h0c.239-.1.206-.494-.091-1.08.421.5.765.686.955.506h0v0l0,0h0c.179-.187,0-.532-.485-.955.572.292.956.326,1.06.089h0v0l0,0h0c.093-.243-.206-.492-.826-.7.651.051,1.023-.064,1.029-.325h0v-.006h0" transform="translate(-1671.065 -178.546)" fill="#304859"/></svg>