<svg id="Layer_4" data-name="Layer 4" xmlns="http://www.w3.org/2000/svg" viewBox="0 0 174.978 52.993"><defs><style>.cls-1{fill:#00009e;}.cls-2,.cls-4{fill:#fff;}.cls-3{fill:#3366b8;}.cls-4{fill-rule:evenodd;}</style></defs><title>logo-radisson-cork</title><g id="cork"><path class="cls-1" d="M19.737,45.355a2.331,2.331,0,0,1,1.623-1s39.9-13.551,92.97-10.841c0,0,3.013-.11,2.2,1.208-.479.772-1.375.821-3.077.909a22.808,22.808,0,0,1-2.835.065s5.427,2.107-16,1.669c0,0,1.891,1.93-5.987,1.373,0,0-21.972-1-66.381,7.051,0,0-3.492.755-2.511-.436Z"/><path class="cls-2" d="M64.8,1.522s-2.642-3.332-2.2.51a113.56,113.56,0,0,1-.962,17.984,5.273,5.273,0,0,0-.635-1.174s-2.3-3.07-4.885-2.219c0,0-3.3,1.038-5.2,6.012,0,0-1.346,3.437-.964,6.026,0,0-.127,6.8,8.15,1.995a11.106,11.106,0,0,0,1.9-1.575,11,11,0,0,0-.556,2.279s-.3,1.8.526,2.246c.313.173.651-.066,1.38-1.811,0,0,5.885-15.1,6.2-21.33,0,0,2.068-3.094-2.757-8.943ZM54.54,28.692s-.609-.4-.57-2.228a10.651,10.651,0,0,1,2.323-5.707s.6-.76,1.089-.853c.163-.031.427.208.551,1.176.029.238-.655.288-.406,1.045,0,0,1.146,2.9,3.559,1.591q-.153.891-.323,1.795c-1.258,1.745-3.9,4.762-6.223,3.181ZM85.128,16.434s4.784,5.094,4.587,8.625c0,0-.651,4.912-8.78,4.744,0,0-2.011-.3-.035-1.589,0,0,5.284-1.709,1.823-8.061,0,0-3.273,3.841-5.438,5.967l.015.017c-6.193,6.043-7.413,3.825-7.413,3.825-2.358-3.375-.631-10.758-.631-10.758.916-3.909,2.938-2.526,2.938-2.526a2.094,2.094,0,0,1,1.847,3.033c-.374,1.963-.853,1.746-.853,1.746-.912.737-1.1,3.97-1.1,3.97.367,1.783-1.219,4.261,3.365.283,1.089-1.093,6.582-7.277,7.457-9.71,0,0,.915-2.371,2.222.434ZM78.035,8.893a2.315,2.315,0,0,1-1.046,1.741c-.8.6-2.44,1.623-2.969,1.484s.069-1.835.1-2.311a8.582,8.582,0,0,1,.14-1.425,1.92,1.92,0,1,1,3.777.511Zm33.751,6.591c1.418-1.875,2.41-1.027,2.41-1.027.135.074.418-.016.535-.025,1.882-.142.337,1.707.337,1.707a30.482,30.482,0,0,0-3.023,6.185,22.062,22.062,0,0,0-.712,2.381c-.574,2.445,2,.715,2,.715a7.951,7.951,0,0,0,.88-.8,1.093,1.093,0,0,1,.55-.311c.538-.076-.377-2.876-.377-2.876-.39-1.109-.322-1.158-.322-1.158-.251-1.359.506-1.709.506-1.709.8-.491,1.453.8,1.453.8a17.158,17.158,0,0,1,1.36,3.984c.614,2.558-1.3,2.359-1.3,2.359a6.786,6.786,0,0,0-2.155,1.507,9.826,9.826,0,0,1-5.067,1.922,2.3,2.3,0,0,1-2.7-2.476c-.021-2.793,5.621-11.179,5.621-11.179ZM100,19.163c1.351.943,3.615,3.034,3.241,5.213,0,0-.652,4.913-8.781,4.745,0,0-.886-.047-.9-.6,0-.4.169-.727.868-.994,0,0,5.286-1.709,1.823-8.06,0,0-1.306,1.011-3.141,2.435,0,0-1.281,1.412-1.189-.594a2.948,2.948,0,0,1,.589-1.536,10.042,10.042,0,0,0,3.925-4.458c.491-1.795,3.118-3.312,3.373-1.8.115.68-.667,1.106-1.053,1.589-.88,1.1.25,3.427,1.248,4.057ZM47.607,28.971a.322.322,0,0,0-.1-.171c-.218-.152-1.293.334-2.359.976-.169.1-.323.189-.465.269a9.46,9.46,0,0,0-.922.617s-.686.547-.611-.682c0-.018,0-.032,0-.049h0c.012-.274.065-.621.082-.993,0,0,.941-3.757,1.347-4.809,0,0,.224-.99.575-2.119,0,0,1.6-1.667-1.341-2.207,0,0-1.409-3.458-2.922,1.99v0a2.636,2.636,0,0,0-1.411-1.764,1.672,1.672,0,0,0-.693-.185,3.33,3.33,0,0,1-.455-.014s-1.41-.486-2.922,1.4c-1.607,1.769-6.295,7.39-5.225,12.1,0,0,.58,2.437,2.745,2.424a7.881,7.881,0,0,0,5.028-2.02A13.368,13.368,0,0,0,39.3,32.309a5.591,5.591,0,0,0,.155.921c.014.062.028.122.044.181a1.8,1.8,0,0,0,.527.959,1.989,1.989,0,0,0,1.7.421c.085-.019.173-.04.264-.068,0,0,3.031-.733,2.956-2.02-.037-.637.194-.764.194-.764a.28.28,0,0,0,.124-.33s2.418-1.617,2.336-2.638ZM38.87,30.762a3.358,3.358,0,0,1-1.134,1.268s-3.316,2.03-3.2-.837a12.585,12.585,0,0,1,.657-3.066,20.176,20.176,0,0,1,3.893-6.142c.218-.218.406-.24.527-.076a13.233,13.233,0,0,1,.638,1.389c.066.111.139.227.217.337a50.566,50.566,0,0,0-1.132,6.3,3.868,3.868,0,0,1-.466.825ZM15.754,15.03c.637,1.162-.213,3.007-.213,3.007-3.676,7.518-8.271,25.272-9.19,28.892l.02-.005s-.024.056-.058.158c-.083.325-.127.5-.127.5-.061.268-.124.506-.189.731a10.2,10.2,0,0,0-.16,2.057l-.012,0c.03.961-.012,1.946-.3,2.078-.827.378-1.254-.728-1.481-1.932a3.1,3.1,0,0,1-1.476-1.239c-2.98-2-.752-7.544-.752-7.544,2.024-8.037,12.054-24.984,12.054-24.984,1.176-1.895,1.663-2.121,1.885-1.717ZM31,43.442c1.591,2.218,2.807,3.784,2.474,4.075-1.082.942-5.952-2.863-5.952-2.863A46,46,0,0,1,14.482,26.5a.656.656,0,0,1,.119-.6c.29-.32.75-.5,1.978-.638h0c-.643-.309-.845-.391-.789-.606.124-.351,1.31-.341,1.31-.341.937-.043,1.617-.1,1.617-.1,1.373-.146,2.07-.274,2.07-.274a7.15,7.15,0,0,0,4.07-1.737c2.891-2.93-1.754-5.866-1.754-5.866C11.33,9.571,1.85,12.778,1.85,12.778a2.242,2.242,0,0,1-1.473-.034c-1.235-.411.96-2.16.96-2.16,5.84-4.836,8.9-3.388,8.9-3.388,11.343.754,16.335,6.684,16.335,6.684,3.953,4.182,2.928,7.517,2.4,8.487-1.934,3.538-6.517,3.627-6.517,3.627-.713.04-1.339.059-1.892.061a6.319,6.319,0,0,1,.913,1.648C22.355,30.462,31,43.442,31,43.442ZM137.229,27.211s6.212,5.121-1.5,4.861c0,0-1.5.113-2.417-2.972,0,0-2.648-6.051-2.455-8.338a17.192,17.192,0,0,0-2.568,4.014,13.926,13.926,0,0,1-1.378,2.6,8.9,8.9,0,0,1-1.086,1.345c-3.4,3.155-3.734-.875-3.734-.875-.7-3.435,1.06-8.948,1.06-8.948,1.28-3.8,3.163-2.238,3.163-2.238a2.255,2.255,0,0,1,1.553,3.2c-.557,1.918-1.057,1.5-1.057,1.5a2.55,2.55,0,0,0-.866,1.925s-.244,2.129.709.5c.716-1.457,2.1-3.883,3.114-4.657,0,0,1.486-1.582,2.355-.279,0,0,3.746,7.529,5.1,8.365Z"/><path class="cls-1" d="M120.132,33.83c1.622.1,3.447.122,5.975.367,1.313.127,3.34.127,3.627.979.263.782-.726,1.586-2.492,1.928a9.275,9.275,0,0,1-2.267.292c-.955-.033-3,.041-3.057-1.06-.044-.688-1.38-.683-2.272-.718-1.785-.07-1.6-.575-1.213-1.183.232-.373.72-.614,1.7-.605Z"/><path class="cls-1" d="M174.964,6.816a.94.94,0,0,0-.939-.939l-29.428,0a.942.942,0,0,0-.939.939l.006,29.428a.941.941,0,0,0,.939.939l29.428-.006a.942.942,0,0,0,.939-.939Z"/><path class="cls-3" d="M170.752,25.855a12.03,12.03,0,0,1-.678-3.694c-1.107,2.458-2.762,6.245-4.639,5.953-1.12-.174-1.2-2.116-.935-3.993a20.2,20.2,0,0,1-2.306,4.249s-.064.083-.2.24a2.933,2.933,0,0,1-1.206.946.991.991,0,0,1-.146.025,1.214,1.214,0,0,1-.453-.027c-.378-.119-.73-.492-1.037-1.2a3.139,3.139,0,0,1-.141-.395c-.04-.189-.072-.373-.094-.551a7.344,7.344,0,0,1-1.123,1.444,10.373,10.373,0,0,1-4.576,2.652c-1.57.447-3.494.82-5.045.054a3.03,3.03,0,0,1-1.149-4.15c.259-.574.416-.233.312.428a5.8,5.8,0,0,0-.086.719c-.126,3.977,6.036,2.085,7.733,1.106a9.527,9.527,0,0,0,2.379-1.9,6.492,6.492,0,0,0,1.579-3.548c.349-2.976-3.358-2.954-5.106-2.88a.47.47,0,0,1-.166-.024q-.3.811-.624,1.609c-.422,1.037-.807,1.907-1.222,2.947A14.4,14.4,0,0,1,150.4,28.6c-.321.45-.573.3-.55-.233a8.99,8.99,0,0,1,.9-2.818c.4-.96.815-1.91,1.216-2.868a35.03,35.03,0,0,0,2.018-5.848.439.439,0,1,1,.865.133,18.826,18.826,0,0,1-.46,2.134,26.148,26.148,0,0,0,1.624-2.361c.487-.842,1.549-3.111.228-3.8-1.079-.564-2.536.344-3.368,1.014a11.988,11.988,0,0,0-2.694,2.917c-.358.441-.587.186-.413-.163a10.876,10.876,0,0,1,3.068-3.532c1.06-.8,2.771-1.863,4.034-.964,1.437,1.022.886,3.147.2,4.492a31.575,31.575,0,0,1-2.308,3.549c1.71-.011,3.786.23,4.748,1.826a3.464,3.464,0,0,1,.259.526c.426-1.147.89-2.1,1.227-2.841a34.936,34.936,0,0,1,3.613-6.446c.231-.336.578.042.377.392a41.792,41.792,0,0,0-4.83,11.03c-.079.32-.144.635-.168.812l-.006.03a4.139,4.139,0,0,0,.174,2.25.84.84,0,0,0,.212.265l0,0c.414.312.931-.249,1.2-.605a16.147,16.147,0,0,0,1.8-2.878,31.847,31.847,0,0,0,2.287-5.494c.169-.607.892-.478.859.219a22.626,22.626,0,0,1-.567,3.279c-.145.746-1.082,5.225.381,3.835,1.6-1.521,2.642-3.952,3.7-6.12.191-.391.711-.322.775.19a23.265,23.265,0,0,0,.754,4.766C171.789,26.007,171.044,26.55,170.752,25.855Z"/><path class="cls-2" d="M153.649,22.263a1.17,1.17,0,0,0,.6-1.054v-.588c0-.648-.264-1.736-2.03-1.736h-6.073v7.287h6.168c1.337,0,2.2-.656,2.2-1.669v-.816A1.367,1.367,0,0,0,153.649,22.263ZM152.9,21.2c0,.3-.093.638-.818.638h-4.594V20.059h4.643c.128,0,.769.024.769.514Zm-5.412,1.812h4.566c.883,0,1.113.16,1.113.78v.494c0,.439-.163.712-.97.712h-4.709ZM157.463,25H162.8v1.175h-6.681V18.885h1.347Zm14.982-6.112v5.351c0,1.676-1.016,2.012-2.656,2.012h-3.171c-1.639,0-2.655-.336-2.655-2.012V18.885h1.345v5.342c0,.511.09.847,1.282.847h3.228c1.193,0,1.283-.336,1.283-.847V18.885Z"/><polygon class="cls-2" points="83.434 45.507 82.518 45.507 82.518 48.289 78.938 48.289 78.938 45.507 78.021 45.507 78.021 51.894 78.938 51.894 78.938 49.112 82.518 49.112 82.518 51.894 83.434 51.894 83.434 45.507 83.434 45.507"/><path class="cls-4" d="M85.533,48.7a3.3,3.3,0,0,0,.419,1.621,3.169,3.169,0,0,0,1.177,1.193,3.58,3.58,0,0,0,1.813.464,3.687,3.687,0,0,0,1.857-.466,3.136,3.136,0,0,0,1.183-1.2,3.376,3.376,0,0,0-.007-3.256,3.122,3.122,0,0,0-1.187-1.183,3.667,3.667,0,0,0-1.828-.454,3.627,3.627,0,0,0-1.809.456,3.178,3.178,0,0,0-1.19,1.185,3.294,3.294,0,0,0-.428,1.636Zm.944,0a2.406,2.406,0,0,1,.708-1.744,2.637,2.637,0,0,1,3.559,0,2.5,2.5,0,0,1,0,3.486,2.628,2.628,0,0,1-3.559,0,2.409,2.409,0,0,1-.708-1.742Z"/><polygon class="cls-2" points="98.767 45.507 93.429 45.507 93.429 46.33 95.64 46.33 95.64 51.894 96.556 51.894 96.556 46.33 98.767 46.33 98.767 45.507 98.767 45.507"/><polygon class="cls-2" points="104.215 45.507 100.591 45.507 100.591 51.894 104.299 51.894 104.299 51.071 101.508 51.071 101.508 49.084 104.121 49.084 104.121 48.261 101.508 48.261 101.508 46.33 104.215 46.33 104.215 45.507 104.215 45.507"/><polygon class="cls-2" points="107.139 45.507 106.223 45.507 106.223 51.894 110.024 51.894 110.024 51.071 107.139 51.071 107.139 45.507 107.139 45.507"/><path class="cls-4" d="M118.733,48.719a4.12,4.12,0,0,1-.3.537,3.18,3.18,0,0,1-.388.494l-.9-1.031a3.523,3.523,0,0,0,.894-.838,1.488,1.488,0,0,0,.275-.867,1.316,1.316,0,0,0-.43-.984,1.612,1.612,0,0,0-1.105-.4,1.753,1.753,0,0,0-1.192.4,1.393,1.393,0,0,0-.447,1.069,1.734,1.734,0,0,0,.22.8,3.14,3.14,0,0,0,.5.684,4.164,4.164,0,0,0-1.087.846,1.572,1.572,0,0,0-.42,1.037,1.467,1.467,0,0,0,.478,1.078,1.669,1.669,0,0,0,1.132.438,2.246,2.246,0,0,0,.931-.207,4.189,4.189,0,0,0,1.092-.747l.73.87h1.18l-1.292-1.5a6.053,6.053,0,0,0,.632-.845,4.311,4.311,0,0,0,.407-.832Zm-1.3,1.668a3.354,3.354,0,0,1-.674.54,1.379,1.379,0,0,1-.694.209.816.816,0,0,1-.538-.2.708.708,0,0,1-.25-.474.926.926,0,0,1,.291-.655,4.374,4.374,0,0,1,.825-.619l1.04,1.2Zm-1.387-3.373a.57.57,0,0,1,.2-.435.747.747,0,0,1,.494-.174.78.78,0,0,1,.524.187.627.627,0,0,1,.208.469.763.763,0,0,1-.161.481,2.468,2.468,0,0,1-.674.559,2.474,2.474,0,0,1-.4-.494,1.182,1.182,0,0,1-.193-.593Z"/><path class="cls-2" d="M127.287,45.872a2.711,2.711,0,0,0-.7-.337,2.411,2.411,0,0,0-.726-.112,2.1,2.1,0,0,0-1.408.462,1.6,1.6,0,0,0-.53,1.242,1.5,1.5,0,0,0,.432,1.056,4.356,4.356,0,0,0,.95.717,6.952,6.952,0,0,1,.949.635,1.072,1.072,0,0,1,.432.815.743.743,0,0,1-.253.536,1.133,1.133,0,0,1-.787.269,1.854,1.854,0,0,1-.9-.239,2.6,2.6,0,0,1-.783-.688v1.161a2.9,2.9,0,0,0,.835.446,3,3,0,0,0,.954.143,1.822,1.822,0,0,0,1.281-.49,1.7,1.7,0,0,0,.507-1.242,1.759,1.759,0,0,0-.431-1.191,3.611,3.611,0,0,0-.951-.732,8.945,8.945,0,0,1-.949-.58.934.934,0,0,1-.432-.738.671.671,0,0,1,.285-.548,1.211,1.211,0,0,1,.728-.211,1.88,1.88,0,0,1,.707.139,2.529,2.529,0,0,1,.79.526V45.872Z"/><path class="cls-4" d="M129.457,45.507v6.387h.916V49.131h.956a2.354,2.354,0,0,0,1.632-.519,1.66,1.66,0,0,0,.522-1.27,1.787,1.787,0,0,0-.493-1.3,2.1,2.1,0,0,0-1.539-.538Zm.916.823h1.078a1.1,1.1,0,0,1,.856.312.971.971,0,0,1,.231.663.94.94,0,0,1-.306.74,1.217,1.217,0,0,1-.818.263h-1.041V46.33Z"/><path class="cls-4" d="M137.3,45.47h-.647l-2.743,6.424h.936l.806-1.883h2.715l.852,1.883h.937L137.3,45.47Zm-.338,1.405L138,49.188h-1.985l.955-2.313Z"/><path class="cls-2" d="M141.672,53a1.514,1.514,0,0,0,.824-.551,1.35,1.35,0,0,0,.27-.8,1.111,1.111,0,0,0-.181-.661.579.579,0,0,0-.483-.247.563.563,0,0,0-.4.151.523.523,0,0,0-.156.382.554.554,0,0,0,.128.375.448.448,0,0,0,.331.149,1.094,1.094,0,0,1-.021.56.837.837,0,0,1-.316.461V53Z"/><path class="cls-2" d="M152.089,45.946a7.709,7.709,0,0,0-1.177-.4,4.273,4.273,0,0,0-1.015-.125,3.748,3.748,0,0,0-1.811.441,3.19,3.19,0,0,0-1.235,1.19,3.422,3.422,0,0,0-.456,1.74,3.136,3.136,0,0,0,.361,1.421,3.19,3.19,0,0,0,1.126,1.236,3.6,3.6,0,0,0,1.959.527,4.965,4.965,0,0,0,1.3-.158,4.846,4.846,0,0,0,1.017-.4v-1a4.727,4.727,0,0,1-1.115.536,3.607,3.607,0,0,1-1.115.185,2.673,2.673,0,0,1-1.869-.675,2.349,2.349,0,0,1-.716-1.751,2.39,2.39,0,0,1,.726-1.75,2.6,2.6,0,0,1,1.822-.7,3.676,3.676,0,0,1,1.083.16,5.216,5.216,0,0,1,1.118.505v-.984Z"/><path class="cls-4" d="M153.964,48.7a3.3,3.3,0,0,0,.419,1.621,3.177,3.177,0,0,0,1.177,1.193,3.576,3.576,0,0,0,1.812.464,3.691,3.691,0,0,0,1.858-.466,3.136,3.136,0,0,0,1.183-1.2,3.376,3.376,0,0,0-.007-3.256,3.122,3.122,0,0,0-1.187-1.183,3.667,3.667,0,0,0-1.828-.454,3.627,3.627,0,0,0-1.809.456,3.17,3.17,0,0,0-1.19,1.185,3.283,3.283,0,0,0-.428,1.636Zm.945,0a2.4,2.4,0,0,1,.707-1.744,2.637,2.637,0,0,1,3.559,0,2.5,2.5,0,0,1,0,3.486,2.628,2.628,0,0,1-3.559,0,2.4,2.4,0,0,1-.707-1.742Z"/><path class="cls-4" d="M162.947,45.507v6.387h.917V49.121h.384a1.081,1.081,0,0,1,.46.088,1.646,1.646,0,0,1,.526.412,7.256,7.256,0,0,1,.71.962l.842,1.311h1.1c-.212-.291-.379-.523-.5-.7s-.245-.363-.372-.569q-.354-.6-.677-1.04a3.04,3.04,0,0,0-.746-.731,1.688,1.688,0,0,0,.79-.606,1.8,1.8,0,0,0-.287-2.266,2.326,2.326,0,0,0-1.534-.48Zm.917.786h.59a1.485,1.485,0,0,1,.958.257.884.884,0,0,1,.3.708.968.968,0,0,1-.256.721,1.354,1.354,0,0,1-1,.319h-.59V46.293Z"/><polygon class="cls-2" points="171.512 48.532 174.294 45.507 173.152 45.507 170.463 48.429 170.463 45.507 169.547 45.507 169.547 51.894 170.463 51.894 170.463 48.738 173.713 51.894 174.978 51.894 171.512 48.532 171.512 48.532"/></g></svg>