<svg xmlns="http://www.w3.org/2000/svg" width="109.104" height="70.127" viewBox="0 0 109.104 70.127"><g transform="translate(-435.674 377.107)"><path d="M490.226-375.8c-29.357,0-53.24,15.141-53.24,33.752s23.883,33.751,53.24,33.751,53.24-15.141,53.24-33.751S519.582-375.8,490.226-375.8m0,68.816c-30.08,0-54.552-15.73-54.552-35.064s24.472-35.064,54.552-35.064,54.552,15.729,54.552,35.064-24.473,35.064-54.552,35.064" transform="translate(0)" fill="#0b1737"/><path d="M582.834-301.781l-23.708-.005a.791.791,0,0,1-.768-.79.791.791,0,0,1,.768-.791l23.708.005a.791.791,0,0,1,.768.791.791.791,0,0,1-.768.791" transform="translate(-80.751 -48.536)" fill="#0b1737"/><path d="M578.971-337.257l1.734-9.17a1.131,1.131,0,0,0,1.03-1.126,1.131,1.131,0,0,0-1.131-1.131,1.13,1.13,0,0,0-1.131,1.131,1.128,1.128,0,0,0,.543.965c-.8,1.914-2.142,4.932-3.564,4.932-1.63,0-1.913-2.15-2.165-4.11a1.131,1.131,0,0,0,.517-.951,1.131,1.131,0,0,0-1.13-1.131,1.131,1.131,0,0,0-1.131,1.131,1.129,1.129,0,0,0,.535.96c-.3,1.832-.872,3.651-2.373,3.651-2,0-2.763-4.754-3.026-7.232a1.131,1.131,0,0,0,.523-.952,1.132,1.132,0,0,0-1.132-1.131,1.131,1.131,0,0,0-1.131,1.131,1.13,1.13,0,0,0,.591.993c-.268,2.49-1.036,7.191-3.021,7.191-1.493,0-2.069-1.8-2.368-3.619a1.131,1.131,0,0,0,.588-.992,1.131,1.131,0,0,0-1.131-1.131,1.131,1.131,0,0,0-1.131,1.131,1.126,1.126,0,0,0,.465.912c-.254,1.97-.529,4.149-2.17,4.149-1.421,0-2.761-3.017-3.564-4.931a1.129,1.129,0,0,0,.547-.966,1.132,1.132,0,0,0-1.132-1.131,1.131,1.131,0,0,0-1.131,1.131,1.131,1.131,0,0,0,1.028,1.126l1.735,9.17h23.725Z" transform="translate(-76.884 -16.907)" fill="#0b1737"/><path d="M553.295-228.553c0,.737,0,1.343.038,1.665.023.223.069.392.3.422a3.341,3.341,0,0,0,.345.031c.047,0,.062.023.062.046,0,.038-.038.061-.123.061-.422,0-.906-.023-.944-.023s-.522.023-.752.023c-.085,0-.122-.015-.122-.061,0-.023.015-.046.061-.046a1.184,1.184,0,0,0,.23-.031c.153-.03.192-.2.223-.422.038-.322.038-.928.038-1.665v-.806a.044.044,0,0,0-.046-.047h-3.253c-.024,0-.046.008-.046.047v.806c0,.737,0,1.343.039,1.665.023.223.069.392.3.422a3.34,3.34,0,0,0,.346.031c.046,0,.061.023.061.046,0,.038-.039.061-.123.061-.422,0-.905-.023-.944-.023s-.522.023-.752.023c-.084,0-.122-.015-.122-.061,0-.023.015-.046.061-.046a1.181,1.181,0,0,0,.23-.031c.154-.03.192-.2.223-.422.038-.322.038-.928.038-1.665V-229.9c0-1.2,0-1.412-.015-1.657-.015-.261-.077-.384-.33-.437a1.437,1.437,0,0,0-.261-.024c-.031,0-.062-.015-.062-.046,0-.046.038-.062.123-.062.345,0,.829.023.867.023s.522-.023.752-.023c.084,0,.122.015.122.062,0,.03-.03.046-.062.046a1.146,1.146,0,0,0-.191.024c-.207.038-.269.169-.284.438-.015.245-.015.46-.015,1.657v.161c0,.038.023.045.046.045H552.6c.023,0,.046-.007.046-.045v-.161c0-1.2,0-1.412-.015-1.657-.015-.261-.077-.384-.33-.437a1.437,1.437,0,0,0-.26-.024c-.031,0-.062-.015-.062-.046,0-.046.039-.062.123-.062.345,0,.829.023.867.023s.522-.023.752-.023c.085,0,.123.015.123.062,0,.03-.03.046-.061.046a1.157,1.157,0,0,0-.192.024c-.207.038-.268.169-.283.438-.015.245-.015.46-.015,1.657Z" transform="translate(-73.928 -95.424)" fill="#0b1737"/><path d="M572.124-226.719c.691,0,2.118-.4,2.118-2.633,0-1.841-1.12-2.831-2.333-2.831a2.21,2.21,0,0,0-2.241,2.525c0,1.788,1.074,2.939,2.455,2.939m-.161-5.726a2.8,2.8,0,0,1,3.016,2.878,3.012,3.012,0,0,1-3.062,3.138,2.877,2.877,0,0,1-2.978-3.015,2.972,2.972,0,0,1,3.024-3" transform="translate(-87.715 -95.217)" fill="#0b1737"/><path d="M591.417-228.76c0,.737,0,1.343.038,1.665.023.223.069.392.3.422a3.338,3.338,0,0,0,.345.031c.046,0,.062.023.062.046,0,.038-.038.061-.123.061-.422,0-.906-.023-.944-.023s-.522.023-.752.023c-.084,0-.123-.015-.123-.061,0-.023.015-.046.062-.046a1.177,1.177,0,0,0,.23-.031c.153-.03.192-.2.223-.422.038-.322.038-.928.038-1.665v-3.246l-1.135.015c-.476.008-.66.062-.783.245a1.291,1.291,0,0,0-.13.238c-.023.062-.046.077-.077.077s-.038-.023-.038-.069c0-.077.153-.737.169-.8.015-.045.046-.146.077-.146a1.436,1.436,0,0,0,.338.092c.223.024.514.038.606.038h2.878a4.044,4.044,0,0,0,.545-.038,1.857,1.857,0,0,1,.215-.038c.038,0,.038.046.038.092,0,.231-.023.76-.023.844s-.023.1-.054.1-.054-.023-.062-.13l-.007-.084c-.031-.23-.207-.407-.944-.422l-.967-.015Z" transform="translate(-100.661 -95.217)" fill="#0b1737"/><path d="M606.271-230.021c0-1.2,0-1.412-.015-1.657-.015-.262-.077-.384-.33-.438a1.475,1.475,0,0,0-.261-.023c-.031,0-.062-.015-.062-.045,0-.046.039-.062.123-.062.345,0,.829.024.867.024.054,0,1.581,0,1.757-.008a1.96,1.96,0,0,0,.331-.038c.038-.008.069-.038.107-.038.023,0,.03.03.03.069,0,.054-.038.146-.062.361-.008.077-.023.414-.038.506-.008.038-.023.084-.054.084s-.061-.039-.061-.1a.82.82,0,0,0-.047-.276c-.054-.122-.13-.215-.544-.261-.131-.016-.967-.023-1.051-.023-.031,0-.046.023-.046.077v2.118c0,.054.008.076.046.076.1,0,1.044,0,1.22-.015s.292-.031.361-.107c.054-.061.084-.1.115-.1s.038.015.038.061-.038.177-.061.43c-.015.153-.03.438-.03.491s0,.145-.054.145c-.038,0-.054-.03-.054-.069a.792.792,0,0,0-.03-.253c-.031-.107-.1-.238-.4-.269-.207-.023-.967-.038-1.1-.038a.048.048,0,0,0-.053.054v.676c0,.261-.008,1.151,0,1.312.023.53.138.63.89.63a2.21,2.21,0,0,0,.737-.084c.2-.085.292-.238.346-.553.015-.084.03-.114.069-.114s.046.061.046.114a7.442,7.442,0,0,1-.1.745c-.054.2-.115.2-.414.2-1.159,0-1.673-.046-1.9-.046-.016,0-.146.008-.307.008s-.33.015-.445.015c-.085,0-.123-.015-.123-.061,0-.023.015-.046.061-.046a1.177,1.177,0,0,0,.23-.031c.154-.03.192-.2.223-.422.038-.322.038-.929.038-1.665Z" transform="translate(-111.847 -95.307)" fill="#0b1737"/><path d="M620.611-228.538c0,1.128.03,1.619.169,1.757.122.124.322.177.921.177.407,0,.744-.008.929-.231a1.072,1.072,0,0,0,.2-.46c.008-.062.023-.1.069-.1s.046.031.046.115a4.924,4.924,0,0,1-.115.768c-.054.177-.077.207-.484.207-1.105,0-1.612-.046-2.057-.046-.031,0-.162.008-.315.008s-.322.015-.437.015c-.085,0-.123-.015-.123-.061,0-.023.015-.046.061-.046a1.236,1.236,0,0,0,.23-.03c.153-.031.192-.2.223-.423.038-.322.038-.928.038-1.665v-1.35c0-1.2,0-1.412-.015-1.658-.015-.261-.076-.384-.33-.438a1.439,1.439,0,0,0-.261-.023c-.03,0-.062-.015-.062-.045,0-.046.039-.062.123-.062.345,0,.829.023.867.023s.6-.023.829-.023c.084,0,.123.015.123.062,0,.03-.031.045-.061.045a1.814,1.814,0,0,0-.254.023c-.222.038-.284.169-.3.438-.015.245-.015.46-.015,1.658Z" transform="translate(-120.862 -95.424)" fill="#0b1737"/><path d="M632.887-226.635c-.107-.054-.115-.084-.115-.292,0-.384.03-.691.038-.813.008-.084.024-.122.062-.122s.054.023.054.084a1.361,1.361,0,0,0,.023.284,1.044,1.044,0,0,0,1.136.783,1.024,1.024,0,0,0,1.1-1.021c0-.529-.222-.837-.883-1.382l-.345-.284c-.814-.668-1-1.143-1-1.665a1.406,1.406,0,0,1,1.589-1.382,2.989,2.989,0,0,1,.714.077,1.263,1.263,0,0,0,.268.039c.062,0,.077.015.077.054s-.031.291-.031.813c0,.123-.015.176-.054.176s-.054-.038-.062-.1a1.324,1.324,0,0,0-.1-.383c-.046-.085-.253-.407-.959-.407a.873.873,0,0,0-.944.89c0,.438.215.7.937,1.289l.215.17c.905.713,1.121,1.189,1.121,1.8a1.59,1.59,0,0,1-.653,1.274,2.019,2.019,0,0,1-1.159.322,2.333,2.333,0,0,1-1.028-.207" transform="translate(-129.73 -95.217)" fill="#0b1737"/><path d="M475.44-273.976c0,1.553,0,2.83.081,3.51.048.469.145.825.631.89a7.033,7.033,0,0,0,.727.065c.1,0,.13.049.13.1,0,.081-.081.129-.259.129-.89,0-1.909-.049-1.989-.049s-1.1.049-1.585.049c-.178,0-.259-.032-.259-.129,0-.048.032-.1.129-.1a2.5,2.5,0,0,0,.485-.065c.324-.065.4-.421.469-.89.081-.68.081-1.957.081-3.51v-1.7a.093.093,0,0,0-.1-.1h-6.858a.085.085,0,0,0-.1.1v1.7c0,1.553,0,2.83.08,3.51.049.469.146.825.631.89a7.04,7.04,0,0,0,.728.065c.1,0,.129.049.129.1,0,.081-.081.129-.259.129-.89,0-1.909-.049-1.989-.049s-1.1.049-1.585.049c-.177,0-.259-.032-.259-.129,0-.048.032-.1.129-.1a2.485,2.485,0,0,0,.485-.065c.324-.065.4-.421.47-.89.08-.68.08-1.957.08-3.51v-2.847c0-2.523,0-2.976-.032-3.494-.032-.55-.161-.809-.7-.922a3.019,3.019,0,0,0-.55-.049c-.064,0-.129-.033-.129-.1,0-.1.081-.13.259-.13.728,0,1.746.049,1.828.049s1.1-.049,1.585-.049c.178,0,.259.033.259.13,0,.065-.064.1-.13.1a2.39,2.39,0,0,0-.4.049c-.437.081-.566.355-.6.922-.032.517-.032.97-.032,3.494v.34a.085.085,0,0,0,.1.1h6.858a.085.085,0,0,0,.1-.1v-.34c0-2.523,0-2.976-.032-3.494-.032-.55-.162-.809-.7-.922a3.018,3.018,0,0,0-.55-.049c-.065,0-.13-.033-.13-.1,0-.1.081-.13.259-.13.728,0,1.747.049,1.828.049s1.1-.049,1.585-.049c.178,0,.259.033.259.13,0,.065-.065.1-.13.1a2.386,2.386,0,0,0-.4.049c-.437.081-.566.355-.6.922-.032.517-.032.97-.032,3.494Z" transform="translate(-18.817 -62.919)" fill="#0b1737"/><path d="M511.437-275.075c.08,0,.08-.049.065-.113l-1.536-4.368q-.122-.363-.243,0l-1.423,4.368c-.033.081,0,.113.048.113Zm-1.682-6.47c.194-.534.259-.631.355-.631s.162.081.356.583c.243.614,2.782,7.294,3.769,9.754.582,1.439,1.051,1.7,1.391,1.8a2.094,2.094,0,0,0,.647.1c.1,0,.162.016.162.1,0,.1-.146.129-.323.129-.243,0-1.424,0-2.54-.032-.307-.016-.485-.016-.485-.113,0-.065.049-.1.113-.113.1-.033.194-.178.1-.437l-1.5-3.98a.141.141,0,0,0-.145-.1H508.17a.171.171,0,0,0-.162.129l-.97,2.863a3.417,3.417,0,0,0-.226,1.084c0,.323.34.469.615.469h.161c.114,0,.162.032.162.1,0,.1-.1.129-.242.129-.388,0-1.083-.048-1.262-.048s-1.068.048-1.828.048c-.21,0-.307-.032-.307-.129,0-.064.065-.1.146-.1.113,0,.339-.016.469-.033.744-.1,1.068-.712,1.359-1.521Z" transform="translate(-45.045 -62.483)" fill="#0b1737"/><path d="M543.442-269.932c-.226-.113-.243-.178-.243-.615,0-.808.065-1.455.081-1.714.017-.178.049-.259.13-.259.1,0,.113.049.113.178a2.87,2.87,0,0,0,.048.6,2.2,2.2,0,0,0,2.394,1.65,2.16,2.16,0,0,0,2.313-2.151c0-1.116-.469-1.763-1.86-2.911l-.728-.6c-1.714-1.407-2.1-2.41-2.1-3.511,0-1.73,1.294-2.911,3.348-2.911a6.272,6.272,0,0,1,1.5.162,2.622,2.622,0,0,0,.566.081c.129,0,.161.033.161.113s-.065.615-.065,1.714c0,.259-.032.373-.113.373-.1,0-.114-.081-.13-.211a2.833,2.833,0,0,0-.21-.809c-.1-.178-.534-.857-2.022-.857a1.839,1.839,0,0,0-1.989,1.876c0,.921.453,1.471,1.973,2.717l.453.356c1.909,1.5,2.362,2.507,2.362,3.8a3.35,3.35,0,0,1-1.375,2.685,4.251,4.251,0,0,1-2.443.679,4.916,4.916,0,0,1-2.167-.436" transform="translate(-70.773 -62.483)" fill="#0b1737"/><path d="M572.592-274.412c0,1.553,0,2.83.081,3.51.048.469.146.825.63.89a7.073,7.073,0,0,0,.728.065c.1,0,.129.049.129.1,0,.081-.08.129-.258.129-.89,0-1.909-.049-1.99-.049s-1.1.049-1.585.049c-.178,0-.259-.032-.259-.129,0-.048.033-.1.13-.1a2.5,2.5,0,0,0,.485-.065c.323-.065.4-.421.469-.89.081-.68.081-1.957.081-3.51v-6.842l-2.394.032c-1,.016-1.391.13-1.65.518a2.877,2.877,0,0,0-.275.5c-.048.13-.1.162-.162.162-.048,0-.081-.049-.081-.146,0-.162.324-1.553.356-1.683.033-.1.1-.307.162-.307a3.009,3.009,0,0,0,.712.194c.469.049,1.084.081,1.277.081h6.066a7.832,7.832,0,0,0,1.6-.162c.081,0,.081.1.081.194,0,.486-.049,1.6-.049,1.779,0,.146-.049.211-.113.211-.081,0-.113-.049-.13-.275l-.016-.178c-.065-.485-.437-.857-1.99-.889l-2.038-.032Z" transform="translate(-86.222 -62.484)" fill="#0b1737"/><path d="M605.636-273.976c0,1.553,0,2.83.081,3.51.048.469.146.825.631.89a7.031,7.031,0,0,0,.728.065c.1,0,.13.049.13.1,0,.081-.081.129-.259.129-.889,0-1.908-.049-1.99-.049s-1.1.049-1.585.049c-.178,0-.259-.032-.259-.129,0-.048.033-.1.129-.1a2.5,2.5,0,0,0,.486-.065c.323-.065.4-.421.469-.89.081-.68.081-1.957.081-3.51v-2.847c0-2.523,0-2.976-.032-3.494-.032-.55-.194-.825-.55-.906a2.14,2.14,0,0,0-.5-.064c-.065,0-.13-.033-.13-.1,0-.1.081-.13.259-.13.534,0,1.553.049,1.634.049s1.1-.049,1.585-.049c.178,0,.259.033.259.13,0,.065-.065.1-.13.1a2.394,2.394,0,0,0-.4.049c-.436.081-.566.355-.6.922-.032.517-.032.97-.032,3.494Z" transform="translate(-110.176 -62.919)" fill="#0b1737"/><path d="M624.385-271.921c.032,1.326.195,1.747.631,1.876a3.579,3.579,0,0,0,.809.1c.08,0,.129.032.129.1,0,.1-.1.13-.291.13-.922,0-1.569-.049-1.714-.049s-.825.049-1.552.049c-.162,0-.259-.016-.259-.13,0-.065.048-.1.129-.1a2.348,2.348,0,0,0,.664-.1c.4-.114.485-.582.485-2.054l.016-9.269c0-.631.049-.809.178-.809s.4.356.567.518c.242.275,2.652,2.88,5.144,5.548,1.6,1.714,3.364,3.687,3.881,4.222l-.177-8.218c-.016-1.051-.129-1.407-.631-1.536a4.332,4.332,0,0,0-.793-.081c-.113,0-.129-.049-.129-.113,0-.1.129-.113.323-.113.728,0,1.5.049,1.682.049s.712-.049,1.375-.049c.178,0,.292.016.292.113,0,.065-.065.113-.178.113a1.412,1.412,0,0,0-.388.049c-.534.113-.6.469-.6,1.439l-.033,9.478c0,1.068-.032,1.148-.145,1.148-.129,0-.324-.178-1.181-1.035-.178-.162-2.507-2.54-4.222-4.384-1.877-2.022-3.7-4.06-4.221-4.642Z" transform="translate(-122.73 -62.484)" fill="#0b1737"/><path d="M676.383-273.846c0-1.31-.081-1.489-.728-1.666a3.01,3.01,0,0,0-.55-.049c-.065,0-.13-.032-.13-.1,0-.1.081-.129.259-.129.728,0,1.747.049,1.828.049s1.1-.049,1.585-.049c.178,0,.259.032.259.129,0,.065-.065.1-.13.1a2.388,2.388,0,0,0-.4.049c-.437.081-.566.356-.6.922-.032.518-.032,1-.032,1.682v1.812c0,.728-.016.76-.21.873a7.987,7.987,0,0,1-3.429.728,8.031,8.031,0,0,1-5.321-1.731,6.312,6.312,0,0,1-1.925-4.61,6.131,6.131,0,0,1,2.7-5.322,7.945,7.945,0,0,1,4.3-1.019,13.852,13.852,0,0,1,2.474.275,8.023,8.023,0,0,0,1.311.162c.162.016.194.081.194.146a20.489,20.489,0,0,0-.113,2.3c0,.259-.033.34-.146.34-.081,0-.1-.1-.113-.243a2.485,2.485,0,0,0-.34-1.067c-.4-.615-1.714-1.31-3.8-1.31a5.168,5.168,0,0,0-3.461,1.067,5.192,5.192,0,0,0-1.6,4.109,6.6,6.6,0,0,0,1.715,4.481,5.888,5.888,0,0,0,4.238,1.731,4.411,4.411,0,0,0,1.844-.34.587.587,0,0,0,.324-.566Z" transform="translate(-152.164 -62.484)" fill="#0b1737"/><path d="M709.55-269.932c-.227-.113-.243-.178-.243-.615,0-.808.065-1.455.081-1.714.016-.178.049-.259.129-.259.1,0,.114.049.114.178a2.874,2.874,0,0,0,.048.6,2.2,2.2,0,0,0,2.394,1.65,2.16,2.16,0,0,0,2.314-2.151c0-1.116-.469-1.763-1.86-2.911l-.728-.6c-1.715-1.407-2.1-2.41-2.1-3.511,0-1.73,1.294-2.911,3.348-2.911a6.272,6.272,0,0,1,1.5.162,2.621,2.621,0,0,0,.566.081c.129,0,.161.033.161.113s-.064.615-.064,1.714c0,.259-.033.373-.113.373-.1,0-.113-.081-.13-.211a2.833,2.833,0,0,0-.21-.809c-.1-.178-.534-.857-2.022-.857a1.839,1.839,0,0,0-1.99,1.876c0,.921.453,1.471,1.974,2.717l.453.356c1.909,1.5,2.362,2.507,2.362,3.8a3.351,3.351,0,0,1-1.375,2.685,4.253,4.253,0,0,1-2.443.679,4.914,4.914,0,0,1-2.167-.436" transform="translate(-180.105 -62.483)" fill="#0b1737"/></g></svg>