<?xml version="1.0" encoding="utf-8"?>
<!-- Generator: Adobe Illustrator 24.0.3, SVG Export Plug-In . SVG Version: 6.00 Build 0)  -->
<svg version="1.1" id="Layer_1" xmlns="http://www.w3.org/2000/svg" xmlns:xlink="http://www.w3.org/1999/xlink" x="0px" y="0px"
	 viewBox="0 0 300 68" style="enable-background:new 0 0 300 68;" xml:space="preserve">
<style type="text/css">
	.st0{fill:#010101;}
</style>
<g>
	<path class="st0" d="M8.64,34.23V0.2h22.04v2.41H10.97V16h15.39v2.47H10.99v15.77H8.64z"/>
	<path class="st0" d="M39.42,34.23V0.2h2.36v31.68h19.11v2.36H39.42z"/>
	<path class="st0" d="M81.79,34.58c-3.04,0.02-6.03-0.79-8.64-2.33c-8.31-4.88-11.1-15.58-6.22-23.89c1.51-2.57,3.65-4.71,6.22-6.22
		c5.34-3.11,11.94-3.11,17.28,0c8.31,4.88,11.1,15.58,6.22,23.89c-1.51,2.57-3.65,4.71-6.22,6.22C87.81,33.8,84.83,34.6,81.79,34.58
		z M81.79,2.23C79.17,2.2,76.6,2.9,74.35,4.24c-2.25,1.32-4.11,3.19-5.42,5.44c-2.69,4.65-2.69,10.38,0,15.03
		c1.31,2.25,3.17,4.13,5.42,5.44c4.59,2.69,10.28,2.69,14.87,0c2.24-1.32,4.1-3.19,5.39-5.44c2.66-4.66,2.66-10.37,0-15.03
		c-1.29-2.25-3.15-4.13-5.39-5.44c-2.25-1.33-4.82-2.02-7.43-2V2.23z"/>
	<path class="st0" d="M132.42,27.48l8.45-27.28h2.51l-10.75,34.61l-9.69-25.34l-9.79,25.34L102.37,0.2h2.46l8.54,27.39l9.57-24.72
		L132.42,27.48z"/>
	<path class="st0" d="M150.75,34.23V0.2h22.04v2.41h-19.71V16h15.34v2.41h-15.33v13.36h19.71v2.46L150.75,34.23z"/>
	<path class="st0" d="M201.85,34.23l-14.13-17.18h4.19c2.14,0.08,4.27-0.26,6.28-0.99c1.22-0.59,2.28-1.46,3.09-2.54
		c0.85-1.06,1.31-2.38,1.31-3.74c-0.02-1.25-0.41-2.46-1.13-3.49c-0.8-1.16-1.88-2.08-3.14-2.7c-1.46-0.72-3.08-1.08-4.71-1.05
		h-9.51v31.68h-2.36V0.2h11.89c1.53-0.01,3.06,0.25,4.5,0.76c1.35,0.48,2.6,1.22,3.67,2.17c0.98,0.86,1.77,1.91,2.33,3.09
		c1.35,2.85,0.99,6.21-0.92,8.72c-1.05,1.43-2.46,2.56-4.08,3.27c-1,0.47-2.07,0.78-3.17,0.92c-1.09,0.13-2.18,0.19-3.27,0.18
		L205,34.23H201.85z"/>
	<path class="st0" d="M235.97,21.07c0.87,1.23,1.34,2.71,1.34,4.22c0,1.29-0.32,2.56-0.95,3.69c-0.66,1.21-1.59,2.26-2.72,3.06
		c-2.49,1.76-5.48,2.68-8.54,2.62c-1.56,0.01-3.12-0.22-4.61-0.68c-1.41-0.42-2.75-1.08-3.94-1.94c-1.86-1.26-3.15-3.2-3.61-5.39
		l2.25-1.26c0.11,1.94,1.16,3.7,2.82,4.71c0.96,0.73,2.04,1.27,3.2,1.6c1.26,0.38,2.56,0.57,3.87,0.56
		c2.55,0.08,5.06-0.69,7.12-2.18c1.85-1.36,2.78-2.97,2.78-4.81c0-1.1-0.36-2.16-1.02-3.04c-0.77-1-1.75-1.82-2.88-2.39
		c-1.15-0.59-3.22-1.06-6.19-1.41L222.24,18c-1.35-0.19-2.66-0.58-3.9-1.15c-1.6-0.75-2.99-1.89-4.03-3.32
		c-0.96-1.31-1.47-2.89-1.46-4.5c0-1.28,0.33-2.54,0.97-3.64c0.69-1.19,1.63-2.21,2.75-3.01c1.2-0.86,2.53-1.51,3.94-1.94
		c1.49-0.46,3.05-0.69,4.61-0.68c3.05-0.06,6.04,0.86,8.54,2.62c2.02,1.54,3.21,3.32,3.56,5.34l-2.25,1.26
		c-0.04-0.89-0.3-1.75-0.76-2.51c-0.52-0.86-1.2-1.61-2.02-2.2c-0.98-0.72-2.08-1.26-3.24-1.59c-1.24-0.37-2.53-0.56-3.82-0.56
		c-1.3,0-2.6,0.19-3.85,0.56c-1.16,0.33-2.26,0.87-3.22,1.59c-0.84,0.59-1.55,1.35-2.09,2.22c-0.47,0.77-0.73,1.65-0.73,2.55
		c0.03,1.18,0.46,2.31,1.2,3.22c0.78,1.05,1.81,1.91,2.98,2.49c0.77,0.36,1.59,0.62,2.43,0.76c0.9,0.16,2.04,0.33,3.43,0.5
		l1.83,0.26c0.95,0.13,1.89,0.32,2.82,0.56c0.8,0.2,1.58,0.5,2.31,0.89C233.72,18.51,235,19.67,235.97,21.07z"/>
	<path class="st0" d="M244.27,32.46c0-0.51,0.2-0.99,0.56-1.34c0.33-0.36,0.8-0.56,1.28-0.56c0.49,0,0.96,0.2,1.28,0.56
		c0.36,0.34,0.56,0.82,0.56,1.31c0,0.48-0.21,0.94-0.56,1.26c-0.71,0.7-1.85,0.7-2.57,0C244.48,33.37,244.28,32.93,244.27,32.46z"/>
	<path class="st0" d="M256.26,34.23V0.2h2.36v34.04H256.26z"/>
	<path class="st0" d="M269.3,34.23V0.2h22.02v2.41h-19.71V16h15.34v2.41h-15.3v13.36h19.71v2.46L269.3,34.23z"/>
	<path class="st0" d="M56.82,57.87v0.7h-3.91v9.18h-0.7v-9.18h-3.94v-0.7L56.82,57.87z"/>
	<path class="st0" d="M68.61,63.16h-5.83v4.59h-0.7v-9.88h0.7v4.59h5.83v-4.59h0.69v9.88h-0.69L68.61,63.16z"/>
	<path class="st0" d="M75.26,67.75v-9.88h6.4v0.7h-5.72v3.89h4.45v0.7h-4.45v3.87h5.72v0.72L75.26,67.75z"/>
	<path class="st0" d="M96.83,65.24l-1.17,2.51h-0.76l4.65-10l4.39,10h-0.74l-1.13-2.51H96.83z M99.52,59.44l-2.37,5.12h4.63
		L99.52,59.44z"/>
	<path class="st0" d="M114.96,67.75l-4.1-4.98h1.22c0.62,0.02,1.24-0.08,1.82-0.29c0.35-0.17,0.66-0.42,0.9-0.73
		c0.25-0.31,0.38-0.69,0.38-1.09c0-0.36-0.11-0.72-0.32-1.01c-0.23-0.33-0.55-0.6-0.91-0.78c-0.43-0.21-0.89-0.31-1.37-0.3h-2.76
		v9.19h-0.68v-9.88h3.45c0.44,0,0.89,0.07,1.31,0.22c0.39,0.14,0.75,0.35,1.06,0.63c0.28,0.25,0.51,0.56,0.68,0.9
		c0.39,0.83,0.29,1.81-0.26,2.53c-0.3,0.41-0.71,0.74-1.18,0.95c-0.29,0.13-0.6,0.22-0.92,0.26c-0.31,0.04-0.63,0.06-0.95,0.06
		l3.57,4.33H114.96z"/>
	<path class="st0" d="M129.21,57.87v0.7h-3.91v9.18h-0.7v-9.18h-3.94v-0.7L129.21,57.87z"/>
	<path class="st0" d="M146.91,67.86c-0.88,0.01-1.75-0.23-2.51-0.68c-2.41-1.42-3.22-4.52-1.8-6.94c0.44-0.74,1.06-1.37,1.8-1.8
		c1.55-0.9,3.46-0.9,5.01,0c2.41,1.42,3.22,4.52,1.8,6.94c-0.44,0.74-1.06,1.37-1.8,1.8C148.65,67.63,147.79,67.86,146.91,67.86z
		 M146.91,58.46c-0.76-0.01-1.5,0.18-2.16,0.56c-0.65,0.38-1.19,0.93-1.57,1.58c-0.78,1.35-0.78,3.01,0,4.36
		c0.38,0.65,0.92,1.2,1.57,1.58c1.33,0.78,2.98,0.78,4.31,0c0.65-0.38,1.19-0.93,1.57-1.58c1.19-2.07,0.5-4.72-1.57-5.94
		C148.41,58.65,147.66,58.45,146.91,58.46z"/>
	<path class="st0" d="M157.14,67.75v-9.88h6.4v0.7h-5.71v3.89h4.47v0.72h-4.47v4.57L157.14,67.75z"/>
	<path class="st0" d="M185.21,67.75h-3.57c-0.88,0.01-1.74-0.22-2.49-0.67c-2.38-1.39-3.18-4.44-1.81-6.83
		c0.44-0.75,1.06-1.38,1.81-1.82c1.36-0.81,3.03-0.9,4.48-0.25c0.62,0.28,1.18,0.68,1.64,1.19l-0.5,0.47
		c-1.35-1.47-3.55-1.79-5.27-0.79c-0.65,0.37-1.19,0.91-1.57,1.55c-0.77,1.33-0.77,2.97,0,4.31c0.38,0.65,0.92,1.19,1.57,1.58
		c0.65,0.38,1.39,0.57,2.15,0.56h2.85v-3.52h-3.25v-0.69h3.94L185.21,67.75z"/>
	<path class="st0" d="M191.34,67.75v-9.88h0.68v9.88H191.34z"/>
	<path class="st0" d="M198.16,67.75v-9.88h6.4v0.7h-5.72v3.89h4.47v0.72h-4.47v4.57L198.16,67.75z"/>
	<path class="st0" d="M218.17,57.87v0.7h-3.9v9.18h-0.7v-9.18h-3.94v-0.7L218.17,57.87z"/>
	<path class="st0" d="M223.59,67.75v-9.88h0.68v9.88H223.59z"/>
	<path class="st0" d="M231.11,59.72v8.02h-0.68v-10l6.84,8.18v-8.05h0.68v10.04L231.11,59.72z"/>
	<path class="st0" d="M251.83,67.75h-3.57c-0.87,0.01-1.74-0.23-2.49-0.67c-0.75-0.43-1.37-1.06-1.81-1.81
		c-0.89-1.55-0.89-3.46,0-5.02c0.44-0.75,1.06-1.38,1.81-1.82c1.36-0.81,3.03-0.9,4.47-0.25c0.63,0.27,1.2,0.68,1.67,1.18l-0.5,0.47
		c-0.4-0.43-0.89-0.77-1.43-1.01c-1.24-0.55-2.67-0.47-3.84,0.22c-0.65,0.37-1.19,0.91-1.57,1.55c-0.77,1.33-0.77,2.98,0,4.31
		c0.38,0.65,0.92,1.19,1.57,1.58c0.65,0.38,1.39,0.57,2.14,0.56h2.85v-3.51h-3.25v-0.69h3.94L251.83,67.75z"/>
</g>
</svg>
